<?xml version="1.0" encoding="UTF-8" standalone="no"?>
<!--
 Licensed to the Apache Software Foundation (ASF) under one
 or more contributor license agreements.  See the NOTICE file
 distributed with this work for additional information
 regarding copyright ownership.  The ASF licenses this file
 to you under the Apache License, Version 2.0 (the
 "License"); you may not use this file except in compliance
 with the License.  You may obtain a copy of the License at

   http://www.apache.org/licenses/LICENSE-2.0

 Unless required by applicable law or agreed to in writing,
 software distributed under the License is distributed on an
 "AS IS" BASIS, WITHOUT WARRANTIES OR CONDITIONS OF ANY
 KIND, either express or implied.  See the License for the
 specific language governing permissions and limitations
 under the License.
-->

<svg
   version="1.1"
   id="Layer_2"
   x="0px"
   y="0px"
   viewBox="0 0 7127.6 2890"
   enable-background="new 0 0 7127.6 2890"
   xml:space="preserve"
   sodipodi:docname="apache-commons-exec.svg"
   inkscape:version="1.3.2 (091e20e, 2023-11-25)"
   inkscape:export-filename="apache-commons-exec.png"
   inkscape:export-xdpi="4.7140694"
   inkscape:export-ydpi="4.7140694"
   xmlns:inkscape="http://www.inkscape.org/namespaces/inkscape"
   xmlns:sodipodi="http://sodipodi.sourceforge.net/DTD/sodipodi-0.dtd"
   xmlns="http://www.w3.org/2000/svg"
   xmlns:svg="http://www.w3.org/2000/svg"><defs
   id="defs76"><rect
     x="1648"
     y="2051.76"
     width="4103.5201"
     height="626.24001"
     id="rect78" /><rect
     x="1573.84"
     y="2010.56"
     width="3534.96"
     height="741.60001"
     id="rect77" /></defs><sodipodi:namedview
   id="namedview76"
   pagecolor="#ffffff"
   bordercolor="#000000"
   borderopacity="0.25"
   inkscape:showpageshadow="2"
   inkscape:pageopacity="0.0"
   inkscape:pagecheckerboard="0"
   inkscape:deskcolor="#d1d1d1"
   inkscape:zoom="0.12135922"
   inkscape:cx="4762.7201"
   inkscape:cy="1446.12"
   inkscape:window-width="1928"
   inkscape:window-height="1212"
   inkscape:window-x="761"
   inkscape:window-y="148"
   inkscape:window-maximized="0"
   inkscape:current-layer="Layer_2" />
<path
   fill="#6d6e71"
   d="m 7104.7,222.9 c 15.3,15.3 22.9,33.7 22.9,55.2 0,21.5 -7.6,39.9 -22.9,55.4 -15.3,15.4 -33.8,23.1 -55.6,23.1 -21.8,0 -40.2,-7.6 -55.4,-22.9 -15.1,-15.3 -22.7,-33.7 -22.7,-55.2 0,-21.5 7.6,-39.9 22.9,-55.4 15.3,-15.4 33.7,-23.1 55.4,-23.1 21.6,0 40.1,7.6 55.4,22.9 z m -6.6,104.1 c 13.3,-13.6 20,-29.8 20,-48.7 0,-18.9 -6.6,-35 -19.8,-48.5 -13.2,-13.4 -29.4,-20.1 -48.6,-20.1 -19.2,0 -35.4,6.7 -48.7,20.2 -13.3,13.5 -19.9,29.7 -19.9,48.7 0,19 6.6,35.2 19.7,48.6 13.1,13.4 29.3,20.1 48.5,20.1 19.2,0 35.4,-6.8 48.8,-20.3 z m -11,-63.8 c 0,14 -6.1,22.8 -18.4,26.4 l 22.5,30.5 H 7073 l -20.3,-28.3 h -18.6 v 28.3 h -14.7 v -84.6 h 31.8 c 12.8,0 22,2.2 27.6,6.6 5.6,4.4 8.3,11.4 8.3,21.1 z m -18.9,11.9 c 3,-2.4 4.4,-6.5 4.4,-12 0,-5.5 -1.5,-9.4 -4.5,-11.6 -3,-2.2 -8.4,-3.2 -16,-3.2 h -18 v 30.5 h 17.5 c 8.1,-0.1 13.7,-1.3 16.6,-3.7 z"
   id="path1" /><g
   id="g1"
   inkscape:label="g1"><path
     fill="#d22128"
     d="m 1574.5,1227.5 417.3,-997.6 h 80.1 l 417.3,997.6 H 2383.8 L 2254.5,915.6 h -448.2 l -127.9,311.9 z m 458.1,-882.4 -205.1,493.2 h 404.7 z"
     id="path5" /><path
     fill="#d22128"
     d="M 2596.9,1227.5 V 229.9 H 3010 c 171.4,0 295.1,158.8 295.1,313.3 0,163 -115.2,316.1 -286.6,316.1 h -324.6 v 368.1 h -97 z m 97,-455.3 h 318.9 c 118,0 193.9,-108.2 193.9,-229 C 3206.7,418.1 3114,317 3004.4,317 h -310.5 z"
     id="path6" /><path
     fill="#d22128"
     d="m 3250.5,1227.5 417.3,-997.6 h 80.1 l 417.3,997.6 H 4059.8 L 3930.5,915.6 h -448.2 l -127.9,311.9 z m 458.1,-882.4 -205.1,493.2 h 404.7 z"
     id="path7" /><path
     fill="#d22128"
     d="m 4637.3,224.2 c 177,0 306.3,89.9 368.1,217.8 l -78.7,47.8 c -63.2,-132.1 -186.9,-177 -295.1,-177 -238.9,0 -369.5,213.6 -369.5,414.5 0,220.6 161.6,420.1 373.7,420.1 112.4,0 244.5,-56.2 307.7,-185.5 l 81.5,42.1 c -64.6,148.9 -241.7,231.8 -394.8,231.8 -274,0 -466.5,-261.3 -466.5,-514.2 0.1,-240.2 172.9,-497.4 473.6,-497.4 z"
     id="path8" /><path
     fill="#d22128"
     d="m 5949.1,229.9 v 997.6 h -98.4 V 761 h -591.5 v 466.5 h -96.9 V 229.9 h 96.9 v 444 h 591.5 v -444 z"
     id="path9" /><path
     fill="#d22128"
     d="m 6844.6,1140.3 v 87.1 H 6174.4 V 229.9 H 6832 V 317 h -560.6 v 359.7 h 489 v 82.9 h -489 v 380.8 h 573.2 z"
     id="path10" /></g>


















<linearGradient
   id="SVGID_1_"
   gradientUnits="userSpaceOnUse"
   x1="-4516.6152"
   y1="-2338.7222"
   x2="-4108.4111"
   y2="-1861.3982"
   gradientTransform="matrix(0.4226 -0.9063 0.9063 0.4226 5117.8774 -2859.9343)">
	<stop
   offset="0"
   style="stop-color:#F69923"
   id="stop28" />
	<stop
   offset="0.3123"
   style="stop-color:#F79A23"
   id="stop29" />
	<stop
   offset="0.8383"
   style="stop-color:#E97826"
   id="stop30" />
</linearGradient>
<path
   fill="url(#SVGID_1_)"
   d="M1230.1,13.7c-45.3,26.8-120.6,102.5-210.5,212.3l82.6,155.9c58-82.9,116.9-157.5,176.3-221.2  c4.6-5.1,7-7.5,7-7.5c-2.3,2.5-4.6,5-7,7.5c-19.2,21.2-77.5,89.2-165.5,224.4c84.7-4.2,214.9-21.6,321.1-39.7  c31.6-177-31-258-31-258S1323.4-41.4,1230.1,13.7z"
   id="path30" />
<path
   fill="none"
   d="M1090.2,903.1c0.6-0.1,1.2-0.2,1.8-0.3l-11.9,1.3c-0.7,0.3-1.4,0.7-2.1,1  C1082.1,904.4,1086.2,903.7,1090.2,903.1z"
   id="path31" />
<path
   fill="none"
   d="M1005.9,1182.3c-6.7,1.5-13.7,2.7-20.7,3.7C992.3,1185,999.2,1183.8,1005.9,1182.3z"
   id="path32" />
<path
   fill="none"
   d="M432.9,1808.8c0.9-2.3,1.8-4.7,2.6-7c18.2-48,36.2-94.7,54-140.1c20-51,39.8-100.4,59.3-148.3  c20.6-50.4,40.9-99.2,60.9-146.3c21-49.4,41.7-97,62-142.8c16.5-37.3,32.8-73.4,48.9-108.3c5.4-11.7,10.7-23.2,16-34.6  c10.5-22.7,21-44.8,31.3-66.5c9.5-20,19-39.6,28.3-58.8c3.1-6.4,6.2-12.8,9.3-19.1c0.5-1,1-2,1.5-3.1l-10.2,1.1l-8-15.9  c-0.8,1.6-1.6,3.1-2.4,4.6c-14.5,28.8-28.9,57.9-43.1,87.2c-8.2,16.9-16.4,34-24.6,51c-22.6,47.4-44.8,95.2-66.6,143.3  c-22.1,48.6-43.7,97.5-64.9,146.5c-20.8,48.1-41.3,96.2-61.2,144.2c-20,48-39.5,95.7-58.5,143.2c-19.9,49.5-39.2,98.7-58,147.2  c-4.2,10.9-8.5,21.9-12.7,32.8c-15,39.2-29.7,77.8-44,116l12.7,25.1l11.4-1.2c0.4-1.1,0.8-2.3,1.3-3.4  C396.7,1905.4,414.9,1856.4,432.9,1808.8z"
   id="path33" />
<path
   fill="none"
   d="M980,1186.8L980,1186.8c0.1,0,0.1,0,0.1-0.1C980.1,1186.8,980.1,1186.8,980,1186.8z"
   id="path34" />
<path
   fill="#BE202E"
   d="M952.6,1323c-10.6,1.9-21.4,3.8-32.5,5.7c-0.1,0-0.1,0.1-0.2,0.1c5.6-0.8,11.2-1.7,16.6-2.6  C942,1325.2,947.3,1324.1,952.6,1323z"
   id="path35" />
<path
   opacity="0.35"
   fill="#BE202E"
   d="M952.6,1323c-10.6,1.9-21.4,3.8-32.5,5.7c-0.1,0-0.1,0.1-0.2,0.1c5.6-0.8,11.2-1.7,16.6-2.6  C942,1325.2,947.3,1324.1,952.6,1323z"
   id="path36" />
<path
   fill="#BE202E"
   d="M980.3,1186.7C980.2,1186.7,980.2,1186.7,980.3,1186.7c-0.1,0.1-0.2,0.1-0.2,0.1c1.8-0.2,3.5-0.5,5.2-0.8  c7-1,13.9-2.2,20.7-3.7C997.5,1183.8,989,1185.2,980.3,1186.7L980.3,1186.7L980.3,1186.7z"
   id="path37" />
<path
   opacity="0.35"
   fill="#BE202E"
   d="M980.3,1186.7C980.2,1186.7,980.2,1186.7,980.3,1186.7c-0.1,0.1-0.2,0.1-0.2,0.1  c1.8-0.2,3.5-0.5,5.2-0.8c7-1,13.9-2.2,20.7-3.7C997.5,1183.8,989,1185.2,980.3,1186.7L980.3,1186.7L980.3,1186.7z"
   id="path38" />
<linearGradient
   id="SVGID_2_"
   gradientUnits="userSpaceOnUse"
   x1="-7537.7339"
   y1="-2391.4075"
   x2="-4625.4141"
   y2="-2391.4075"
   gradientTransform="matrix(0.4226 -0.9063 0.9063 0.4226 5117.8774 -2859.9343)">
	<stop
   offset="0.3233"
   style="stop-color:#9E2064"
   id="stop38" />
	<stop
   offset="0.6302"
   style="stop-color:#C92037"
   id="stop39" />
	<stop
   offset="0.7514"
   style="stop-color:#CD2335"
   id="stop40" />
	<stop
   offset="1"
   style="stop-color:#E97826"
   id="stop41" />
</linearGradient>
<path
   fill="url(#SVGID_2_)"
   d="M858.6,784.7c25.1-46.9,50.5-92.8,76.2-137.4c26.7-46.4,53.7-91.3,80.9-134.7  c1.6-2.6,3.2-5.2,4.8-7.7c27-42.7,54.2-83.7,81.6-122.9L1019.5,226c-6.2,7.6-12.5,15.3-18.8,23.2c-23.8,29.7-48.6,61.6-73.9,95.5  c-28.6,38.2-58,78.9-87.8,121.7c-27.6,39.5-55.5,80.9-83.5,123.7c-23.8,36.5-47.7,74-71.4,112.5c-0.9,1.4-1.8,2.9-2.6,4.3  l107.5,212.3C811.8,873.6,835.1,828.7,858.6,784.7z"
   id="path41" />
<linearGradient
   id="SVGID_3_"
   gradientUnits="userSpaceOnUse"
   x1="-7186.1777"
   y1="-2099.3059"
   x2="-5450.7183"
   y2="-2099.3059"
   gradientTransform="matrix(0.4226 -0.9063 0.9063 0.4226 5117.8774 -2859.9343)">
	<stop
   offset="0"
   style="stop-color:#282662"
   id="stop42" />
	<stop
   offset="9.548390e-02"
   style="stop-color:#662E8D"
   id="stop43" />
	<stop
   offset="0.7882"
   style="stop-color:#9F2064"
   id="stop44" />
	<stop
   offset="0.9487"
   style="stop-color:#CD2032"
   id="stop45" />
</linearGradient>
<path
   fill="url(#SVGID_3_)"
   d="M369,1981c-14.2,39.1-28.5,78.9-42.9,119.6c-0.2,0.6-0.4,1.2-0.6,1.8c-2,5.7-4.1,11.5-6.1,17.2  c-9.7,27.4-18,52.1-37.3,108.2c31.7,14.5,57.1,52.5,81.1,95.6c-2.6-44.7-21-86.6-56.2-119.1c156.1,7,290.6-32.4,360.1-146.6  c6.2-10.2,11.9-20.9,17-32.2c-31.6,40.1-70.8,57.1-144.5,53c-0.2,0.1-0.3,0.1-0.5,0.2c0.2-0.1,0.3-0.1,0.5-0.2  c108.6-48.6,163.1-95.3,211.2-172.6c11.4-18.3,22.5-38.4,33.8-60.6c-94.9,97.5-205,125.3-320.9,104.2l-86.9,9.5  C374.4,1966.3,371.7,1973.6,369,1981z"
   id="path45" />
<linearGradient
   id="SVGID_4_"
   gradientUnits="userSpaceOnUse"
   x1="-7374.1626"
   y1="-2418.5454"
   x2="-4461.8428"
   y2="-2418.5454"
   gradientTransform="matrix(0.4226 -0.9063 0.9063 0.4226 5117.8774 -2859.9343)">
	<stop
   offset="0.3233"
   style="stop-color:#9E2064"
   id="stop46" />
	<stop
   offset="0.6302"
   style="stop-color:#C92037"
   id="stop47" />
	<stop
   offset="0.7514"
   style="stop-color:#CD2335"
   id="stop48" />
	<stop
   offset="1"
   style="stop-color:#E97826"
   id="stop49" />
</linearGradient>
<path
   fill="url(#SVGID_4_)"
   d="M409.6,1786.3c18.8-48.5,38.1-97.7,58-147.2c19-47.4,38.5-95.2,58.5-143.2  c20-48,40.4-96.1,61.2-144.2c21.2-49,42.9-97.8,64.9-146.5c21.8-48.1,44-95.9,66.6-143.3c8.1-17.1,16.3-34.1,24.6-51  c14.2-29.3,28.6-58.4,43.1-87.2c0.8-1.6,1.6-3.1,2.4-4.6L681.4,706.8c-1.8,2.9-3.5,5.8-5.3,8.6c-25.1,40.9-50,82.7-74.4,125.4  c-24.7,43.1-49,87.1-72.7,131.7c-20,37.6-39.6,75.6-58.6,113.9c-3.8,7.8-7.6,15.5-11.3,23.2c-23.4,48.2-44.6,94.8-63.7,139.5  c-21.7,50.7-40.7,99.2-57.5,145.1c-11,30.2-21,59.4-30.1,87.4c-7.5,24-14.7,47.9-21.5,71.8c-16,56.3-29.9,112.4-41.2,168.3  L353,1935.1c14.3-38.1,28.9-76.8,44-116C401.1,1808.2,405.4,1797.3,409.6,1786.3z"
   id="path49" />
<linearGradient
   id="SVGID_5_"
   gradientUnits="userSpaceOnUse"
   x1="-7161.7642"
   y1="-2379.1431"
   x2="-5631.2524"
   y2="-2379.1431"
   gradientTransform="matrix(0.4226 -0.9063 0.9063 0.4226 5117.8774 -2859.9343)">
	<stop
   offset="0"
   style="stop-color:#282662"
   id="stop50" />
	<stop
   offset="9.548390e-02"
   style="stop-color:#662E8D"
   id="stop51" />
	<stop
   offset="0.7882"
   style="stop-color:#9F2064"
   id="stop52" />
	<stop
   offset="0.9487"
   style="stop-color:#CD2032"
   id="stop53" />
</linearGradient>
<path
   fill="url(#SVGID_5_)"
   d="M243.5,1729.4c-13.6,68.2-23.2,136.2-28,203.8c-0.2,2.4-0.4,4.7-0.5,7.1  c-33.7-54-124-106.8-123.8-106.2c64.6,93.7,113.7,186.7,120.9,278c-34.6,7.1-82-3.2-136.8-23.3c57.1,52.5,100,67,116.7,70.9  c-52.5,3.3-107.1,39.3-162.1,80.8c80.5-32.8,145.5-45.8,192.1-35.3C148.1,2414.2,74.1,2645,0,2890c22.7-6.7,36.2-21.9,43.9-42.6  c13.2-44.4,100.8-335.6,238-718.2c3.9-10.9,7.8-21.8,11.8-32.9c1.1-3,2.2-6.1,3.3-9.2c14.5-40.1,29.5-81.1,45.1-122.9  c3.5-9.5,7.1-19,10.7-28.6c0.1-0.2,0.1-0.4,0.2-0.6l-107.9-213.2C244.6,1724.4,244,1726.9,243.5,1729.4z"
   id="path53" />
<linearGradient
   id="SVGID_6_"
   gradientUnits="userSpaceOnUse"
   x1="-7374.1626"
   y1="-2117.1309"
   x2="-4461.8428"
   y2="-2117.1309"
   gradientTransform="matrix(0.4226 -0.9063 0.9063 0.4226 5117.8774 -2859.9343)">
	<stop
   offset="0.3233"
   style="stop-color:#9E2064"
   id="stop54" />
	<stop
   offset="0.6302"
   style="stop-color:#C92037"
   id="stop55" />
	<stop
   offset="0.7514"
   style="stop-color:#CD2335"
   id="stop56" />
	<stop
   offset="1"
   style="stop-color:#E97826"
   id="stop57" />
</linearGradient>
<path
   fill="url(#SVGID_6_)"
   d="M805.6,937c-3.1,6.3-6.2,12.7-9.3,19.1c-9.3,19.2-18.8,38.8-28.3,58.8  c-10.3,21.7-20.7,43.9-31.3,66.5c-5.3,11.4-10.6,22.9-16,34.6c-16.1,35-32.4,71.1-48.9,108.3c-20.3,45.8-41,93.4-62,142.8  c-20,47.1-40.3,95.9-60.9,146.3c-19.5,47.9-39.3,97.3-59.3,148.3c-17.8,45.4-35.9,92.1-54,140.1c-0.9,2.3-1.8,4.7-2.6,7  c-18,47.6-36.2,96.6-54.6,146.8c-0.4,1.1-0.8,2.3-1.3,3.4l86.9-9.5c-1.7-0.3-3.5-0.5-5.2-0.9c103.9-13,242.1-90.6,331.4-186.5  c41.1-44.2,78.5-96.3,113-157.3c25.7-45.4,49.8-95.8,72.8-151.5c20.1-48.7,39.4-101.4,58-158.6c-23.9,12.6-51.2,21.8-81.4,28.2  c-5.3,1.1-10.7,2.2-16.1,3.1c-5.5,1-11,1.8-16.6,2.6l0,0l0,0c0.1,0,0.1-0.1,0.2-0.1c96.9-37.3,158-109.2,202.4-197.4  c-25.5,17.4-66.9,40.1-116.6,51.1c-6.7,1.5-13.7,2.7-20.7,3.7c-1.7,0.3-3.5,0.6-5.2,0.8l0,0l0,0c0.1,0,0.1,0,0.1-0.1  c0,0,0.1,0,0.1,0l0,0c33.6-14.1,62-29.8,86.6-48.4c5.3-4,10.4-8.1,15.3-12.3c7.5-6.5,14.7-13.3,21.5-20.5c4.4-4.6,8.6-9.3,12.7-14.2  c9.6-11.5,18.7-23.9,27.1-37.3c2.6-4.1,5.1-8.3,7.6-12.6c3.2-6.2,6.3-12.3,9.3-18.3c13.5-27.2,24.4-51.5,33-72.8  c4.3-10.6,8.1-20.5,11.3-29.7c1.3-3.7,2.5-7.2,3.7-10.6c3.4-10.2,6.2-19.3,8.4-27.3c3.3-12,5.3-21.5,6.4-28.4l0,0l0,0  c-3.3,2.6-7.1,5.2-11.3,7.7c-29.3,17.5-79.5,33.4-119.9,40.8l79.8-8.8l-79.8,8.8c-0.6,0.1-1.2,0.2-1.8,0.3c-4,0.7-8.1,1.3-12.2,2  c0.7-0.3,1.4-0.7,2.1-1l-273,29.9C806.6,935,806.1,936,805.6,937z"
   id="path57" />
<linearGradient
   id="SVGID_7_"
   gradientUnits="userSpaceOnUse"
   x1="-7554.8232"
   y1="-2132.0981"
   x2="-4642.5034"
   y2="-2132.0981"
   gradientTransform="matrix(0.4226 -0.9063 0.9063 0.4226 5117.8774 -2859.9343)">
	<stop
   offset="0.3233"
   style="stop-color:#9E2064"
   id="stop58" />
	<stop
   offset="0.6302"
   style="stop-color:#C92037"
   id="stop59" />
	<stop
   offset="0.7514"
   style="stop-color:#CD2335"
   id="stop60" />
	<stop
   offset="1"
   style="stop-color:#E97826"
   id="stop61" />
</linearGradient>
<path
   fill="url(#SVGID_7_)"
   d="M1112.9,385.1c-24.3,37.3-50.8,79.6-79.4,127.5c-1.5,2.5-3,5.1-4.5,7.6  c-24.6,41.5-50.8,87.1-78.3,137c-23.8,43.1-48.5,89.3-74.3,139c-22.4,43.3-45.6,89.2-69.4,137.8l273-29.9  c79.5-36.6,115.1-69.7,149.6-117.6c9.2-13.2,18.4-27,27.5-41.3c28-43.8,55.6-92,80.1-139.9c23.7-46.3,44.7-92.2,60.7-133.5  c10.2-26.3,18.4-50.8,24.1-72.3c5-19,8.9-36.9,11.9-54.1C1327.9,363.5,1197.6,380.9,1112.9,385.1z"
   id="path61" />
<path
   fill="#BE202E"
   d="M936.5,1326.1c-5.5,1-11,1.8-16.6,2.6l0,0C925.5,1328,931,1327.1,936.5,1326.1z"
   id="path62" />
<path
   opacity="0.35"
   fill="#BE202E"
   d="M936.5,1326.1c-5.5,1-11,1.8-16.6,2.6l0,0C925.5,1328,931,1327.1,936.5,1326.1z"
   id="path63" />
<linearGradient
   id="SVGID_8_"
   gradientUnits="userSpaceOnUse"
   x1="-7374.1626"
   y1="-2027.484"
   x2="-4461.8433"
   y2="-2027.484"
   gradientTransform="matrix(0.4226 -0.9063 0.9063 0.4226 5117.8774 -2859.9343)">
	<stop
   offset="0.3233"
   style="stop-color:#9E2064"
   id="stop63" />
	<stop
   offset="0.6302"
   style="stop-color:#C92037"
   id="stop64" />
	<stop
   offset="0.7514"
   style="stop-color:#CD2335"
   id="stop65" />
	<stop
   offset="1"
   style="stop-color:#E97826"
   id="stop66" />
</linearGradient>
<path
   fill="url(#SVGID_8_)"
   d="M936.5,1326.1c-5.5,1-11,1.8-16.6,2.6l0,0C925.5,1328,931,1327.1,936.5,1326.1z"
   id="path66" />
<path
   fill="#BE202E"
   d="M980,1186.8c1.8-0.2,3.5-0.5,5.2-0.8C983.5,1186.3,981.8,1186.6,980,1186.8L980,1186.8z"
   id="path67" />
<path
   opacity="0.35"
   fill="#BE202E"
   d="M980,1186.8c1.8-0.2,3.5-0.5,5.2-0.8C983.5,1186.3,981.8,1186.6,980,1186.8L980,1186.8z"
   id="path68" />
<linearGradient
   id="SVGID_9_"
   gradientUnits="userSpaceOnUse"
   x1="-7374.1626"
   y1="-2037.7417"
   x2="-4461.8433"
   y2="-2037.7417"
   gradientTransform="matrix(0.4226 -0.9063 0.9063 0.4226 5117.8774 -2859.9343)">
	<stop
   offset="0.3233"
   style="stop-color:#9E2064"
   id="stop68" />
	<stop
   offset="0.6302"
   style="stop-color:#C92037"
   id="stop69" />
	<stop
   offset="0.7514"
   style="stop-color:#CD2335"
   id="stop70" />
	<stop
   offset="1"
   style="stop-color:#E97826"
   id="stop71" />
</linearGradient>
<path
   fill="url(#SVGID_9_)"
   d="M980,1186.8c1.8-0.2,3.5-0.5,5.2-0.8C983.5,1186.3,981.8,1186.6,980,1186.8L980,1186.8z"
   id="path71" />
<path
   fill="#BE202E"
   d="M980.2,1186.7C980.2,1186.7,980.2,1186.7,980.2,1186.7L980.2,1186.7L980.2,1186.7L980.2,1186.7  C980.2,1186.7,980.2,1186.7,980.2,1186.7z"
   id="path72" />
<path
   opacity="0.35"
   fill="#BE202E"
   d="M980.2,1186.7C980.2,1186.7,980.2,1186.7,980.2,1186.7L980.2,1186.7L980.2,1186.7  L980.2,1186.7C980.2,1186.7,980.2,1186.7,980.2,1186.7z"
   id="path73" />
<linearGradient
   id="SVGID_10_"
   gradientUnits="userSpaceOnUse"
   x1="-5738.0635"
   y1="-2039.799"
   x2="-5094.3457"
   y2="-2039.799"
   gradientTransform="matrix(0.4226 -0.9063 0.9063 0.4226 5117.8774 -2859.9343)">
	<stop
   offset="0.3233"
   style="stop-color:#9E2064"
   id="stop73" />
	<stop
   offset="0.6302"
   style="stop-color:#C92037"
   id="stop74" />
	<stop
   offset="0.7514"
   style="stop-color:#CD2335"
   id="stop75" />
	<stop
   offset="1"
   style="stop-color:#E97826"
   id="stop76" />
</linearGradient>
<path
   fill="url(#SVGID_10_)"
   d="M980.2,1186.7C980.2,1186.7,980.2,1186.7,980.2,1186.7L980.2,1186.7L980.2,1186.7L980.2,1186.7  C980.2,1186.7,980.2,1186.7,980.2,1186.7z"
   id="path76" />
<text
   xml:space="preserve"
   style="font-size:356.896px;fill:#000000;stroke-width:16.7295"
   x="1566.6548"
   y="2613.0735"
   id="text342"
   transform="scale(0.98474328,1.0154931)"><tspan
     sodipodi:role="line"
     id="tspan342"
     x="1566.6548"
     y="2613.0735"
     style="font-style:normal;font-variant:normal;font-weight:normal;font-stretch:normal;font-size:356.896px;font-family:sans-serif;-inkscape-font-specification:sans-serif;fill:#333333;fill-opacity:1;stroke-width:16.7295">https://commons.apache.org/</tspan></text><text
   xml:space="preserve"
   style="font-size:144.845px;fill:#000000;stroke-width:6.78964"
   x="6972.3481"
   y="1556.356"
   id="text342-5"
   transform="scale(0.98474328,1.0154931)"><tspan
     sodipodi:role="line"
     id="tspan342-6"
     x="6972.3481"
     y="1556.356"
     style="font-style:normal;font-variant:normal;font-weight:normal;font-stretch:normal;font-size:144.845px;font-family:sans-serif;-inkscape-font-specification:sans-serif;fill:#333333;fill-opacity:1;stroke-width:6.78964">TM</tspan></text><text
   xml:space="preserve"
   style="font-size:744.393px;fill:#000000;stroke-width:23.8993"
   x="938.79889"
   y="2048.9463"
   id="text342-4"
   transform="scale(0.98474328,1.0154931)"><tspan
     sodipodi:role="line"
     id="tspan342-1"
     x="938.79889"
     y="2048.9463"
     style="font-style:normal;font-variant:normal;font-weight:bold;font-stretch:normal;font-size:744.393px;font-family:sans-serif;-inkscape-font-specification:'sans-serif Bold';fill:#333333;fill-opacity:1;stroke-width:23.8993">Commons Exec</tspan></text></svg>
